<?xml version="1.0" encoding="UTF-8" standalone="no"?>
<!-- Created with Inkscape (http://www.inkscape.org/) -->

<svg
   width="512"
   height="512"
   viewBox="0 0 135.46667 135.46666"
   version="1.1"
   id="svg5"
   sodipodi:docname="automatic-save-1000-2023_04_12_15_19_13-14797-1.svg"
   inkscape:version="1.2.2 (b0a8486541, 2022-12-01)"
   xmlns:inkscape="http://www.inkscape.org/namespaces/inkscape"
   xmlns:sodipodi="http://sodipodi.sourceforge.net/DTD/sodipodi-0.dtd"
   xmlns:xlink="http://www.w3.org/1999/xlink"
   xmlns="http://www.w3.org/2000/svg"
   xmlns:svg="http://www.w3.org/2000/svg">
  <sodipodi:namedview
     id="namedview7"
     pagecolor="#505050"
     bordercolor="#eeeeee"
     borderopacity="1"
     inkscape:showpageshadow="0"
     inkscape:pageopacity="0"
     inkscape:pagecheckerboard="0"
     inkscape:deskcolor="#505050"
     inkscape:document-units="mm"
     showgrid="false"
     inkscape:zoom="0.60145508"
     inkscape:cx="645.93352"
     inkscape:cy="296.78027"
     inkscape:window-width="1908"
     inkscape:window-height="1042"
     inkscape:window-x="0"
     inkscape:window-y="0"
     inkscape:window-maximized="1"
     inkscape:current-layer="layer2" />
  <defs
     id="defs2">
    <linearGradient
       inkscape:collect="always"
       id="linearGradient1189">
      <stop
         style="stop-color:#25211c;stop-opacity:1;"
         offset="0"
         id="stop1185" />
      <stop
         style="stop-color:#340a0a;stop-opacity:1;"
         offset="1"
         id="stop1187" />
    </linearGradient>
    <linearGradient
       inkscape:collect="always"
       id="linearGradient2760">
      <stop
         style="stop-color:#ffc42a;stop-opacity:1;"
         offset="0"
         id="stop2756" />
      <stop
         style="stop-color:#ff2a2a;stop-opacity:1;"
         offset="1"
         id="stop2758" />
    </linearGradient>
    <linearGradient
       inkscape:collect="always"
       id="linearGradient600">
      <stop
         style="stop-color:#e6723f;stop-opacity:1;"
         offset="0"
         id="stop596" />
      <stop
         style="stop-color:#e41212;stop-opacity:1;"
         offset="1"
         id="stop598" />
    </linearGradient>
    <linearGradient
       inkscape:collect="always"
       xlink:href="#linearGradient600"
       id="linearGradient602"
       x1="88.876495"
       y1="40.95578"
       x2="42.604774"
       y2="131.28546"
       gradientUnits="userSpaceOnUse"
       gradientTransform="matrix(-1.2431511,0,0,1,151.40751,-3.7508611)" />
    <linearGradient
       inkscape:collect="always"
       xlink:href="#linearGradient2760"
       id="linearGradient2762"
       x1="35.834309"
       y1="152.78365"
       x2="92.011978"
       y2="70.712257"
       gradientUnits="userSpaceOnUse"
       gradientTransform="matrix(-1.2431511,0,0,1,151.40751,-3.7508611)" />
    <linearGradient
       inkscape:collect="always"
       xlink:href="#linearGradient1189"
       id="linearGradient419"
       x1="102.7049"
       y1="45.489475"
       x2="31.203419"
       y2="135.00188"
       gradientUnits="userSpaceOnUse"
       gradientTransform="translate(3.6464504,0.70717566)" />
    <filter
       style="color-interpolation-filters:sRGB;"
       inkscape:label="Blur"
       id="filter1258"
       x="-0.17310554"
       y="-0.15428723"
       width="1.3462111"
       height="1.3085745">
      <feGaussianBlur
         stdDeviation="8.16885 6.93995"
         result="blur"
         id="feGaussianBlur1256" />
    </filter>
  </defs>
  <g
     inkscape:label="Layer 1"
     inkscape:groupmode="layer"
     id="layer1"
     style="display:inline">
    <path
       style="fill:url(#linearGradient602);fill-opacity:1;stroke-width:0.295001"
       d="M 125.22343,91.347138 C 122.46998,77.007841 110.50447,76.005286 110.17546,36.699861 102.30372,50.46599 102.11287,50.488594 100.82609,64.690803 84.843184,46.5281 91.7271,36.49435 87.156404,26.325911 82.585708,16.157473 76.604666,20.743571 69.226756,1.0563592 64.545745,24.98062 89.744383,26.871473 61.084555,57.034474 64.573173,34.67154 45.243909,38.052361 36.910852,9.1581809 31.828141,27.808761 51.561903,50.675082 29.893856,63.401403 24.445819,57.024115 22.796058,53.772837 12.293395,45.395049 37.635632,84.890733 2.2098125,86.127288 31.588089,119.86269 c 17.458157,11.51014 26.646824,11.53827 48.063585,11.49451 21.416766,-0.0438 33.849486,-10.58198 39.845776,-16.36277 5.99628,-5.7808 6.93879,-17.331261 5.72598,-23.647292 z"
       id="path191"
       sodipodi:nodetypes="scczcccccczss" />
    <path
       style="fill:url(#linearGradient2762);fill-opacity:1;stroke-width:0.282387"
       d="M 114.25896,99.904849 C 107.76492,71.00195 96.575904,82.110969 96.024111,43.976247 90.165436,63.857294 79.623593,65.163424 80.138154,81.77048 68.159991,63.792953 84.652015,58.429583 70.329478,37.556566 73.869407,56.867895 60.62631,61.583385 60.489142,73.803851 53.080999,63.835176 61.020301,62.178479 41.788738,44.345535 53.540545,82.895402 14.826541,92.89999 40.257589,118.59597 c 13.494025,13.6346 22.212639,12.94688 34.442524,13.41133 12.229885,0.46446 44.776057,-8.88234 39.558847,-32.102451 z"
       id="path454"
       sodipodi:nodetypes="scccccsss" />
    <path
       style="fill:#ff2a2a;fill-opacity:1;stroke-width:0.295001"
       d="M 113.02814,8.7876127 C 114.8355,23.833788 130.09509,23.617716 122.23855,42.770073 115.92262,31.12907 108.23705,23.402124 113.02814,8.7876127 Z"
       id="path4270"
       sodipodi:nodetypes="ccc" />
  </g>
  <g
     inkscape:groupmode="layer"
     id="layer2"
     inkscape:label="Layer 2">
    <path
       style="fill:url(#linearGradient419);fill-opacity:1;stroke-width:0.264583"
       d="M 44.546302,105.0104 C 20.778179,77.468228 15.233381,29.684518 45.593645,24.325578 c 30.360264,-5.35894 14.939177,23.9196 36.077998,42.24667 21.138817,18.32707 39.461517,-8.25601 46.437777,23.89028 6.97626,32.146292 -59.794995,42.090032 -83.563118,14.547872 z"
       id="path5022"
       sodipodi:nodetypes="zzzzz" />
    <path
       style="fill:#f9c8a8;fill-opacity:0.230827;stroke-width:0.290899;filter:url(#filter1258)"
       d="M 42.709818,108.48526 C 16.796561,77.94782 10.75133,24.967528 43.851686,19.025792 76.952042,13.084056 60.139162,45.5467 83.185816,65.866879 106.23246,86.187057 126.20883,56.71301 133.81471,92.355278 141.4206,127.99756 68.623075,139.02271 42.709818,108.48526 Z"
       id="path5022-7"
       sodipodi:nodetypes="zzzzz"
       inkscape:label="path5022-7" />
    <path
       style="fill:#f9c8a8;fill-opacity:0.230827;stroke-width:0.264583"
       id="path1314"
       d="m 61.571091,43.786025 c 0.798373,2.215219 1.160407,4.551521 1.653596,6.846329 0.409734,2.407822 1.059926,4.762855 1.573342,7.14669 0.449501,2.974022 1.18372,5.771043 2.282621,8.569663 1.138219,2.538963 2.932332,4.672356 4.688105,6.798045 1.399069,1.756686 2.883834,3.418293 4.565819,4.909222 1.585926,1.34197 3.334581,2.465912 4.963372,3.754224 2.030089,1.678966 4.016734,2.864365 6.466541,3.823035 1.650206,0.530278 3.265519,1.139074 4.846018,1.84897 0.79757,0.179474 1.516925,0.891114 2.349727,0.929383 0.544949,0.02503 1.089811,-0.05194 1.634718,-0.07791 0.284083,-0.191079 0.568164,-0.382156 0.852247,-0.573233 0.208044,-0.206203 -2.708109,-3.148385 -2.91615,-2.942182 v 0 c 0.171577,-0.108961 0.343154,-0.217922 0.514731,-0.326883 0.407008,-0.0041 0.815813,-0.05085 1.221022,-0.01241 0.08435,0.008 0.254871,0.213952 0.175766,0.183604 -0.39197,-0.150373 -0.660011,-0.539144 -1.046975,-0.702331 -1.593231,-1.010065 -3.313406,-1.727766 -5.099621,-2.330532 -2.016279,-0.784053 -3.901192,-1.778415 -5.581455,-3.16199 -1.598699,-1.167376 -3.269734,-2.233811 -4.84044,-3.435853 -1.500135,-1.353915 -2.814535,-2.898317 -4.121367,-4.432657 -1.437225,-1.8415 -2.851142,-3.734726 -3.871357,-5.844466 -0.341522,-0.830397 -0.752287,-1.781201 -1.028687,-2.639041 -0.564555,-1.752166 -0.904793,-3.57105 -1.40245,-5.341657 -0.694915,-2.266757 -0.872847,-4.643948 -1.175121,-6.987477 -0.54529,-2.928836 -1.183584,-5.955569 -3.139487,-8.306056 -0.163026,-0.25205 -3.72754,2.053452 -3.564515,2.305502 z" />
  </g>
</svg>
